<svg xmlns="http://www.w3.org/2000/svg" width="340" height="280" viewBox="0 0 340 280" preserveAspectRatio="xMidYMid meet" style="width: 100%; height: 100%;"><defs><clipPath id="animationMask_PeTMoc25CK"><rect width="340" height="280" x="0" y="0"></rect></clipPath><mask id="ly_SiO6mGQ65L" mask-type="alpha"><g transform="matrix(0.7259113534644955,0,0,0.7259113534644955,119.7809748794178,85.87241051497064)" opacity="1" style="user-select: none;"><g opacity="1" transform="matrix(1,0,0,1,163.987,140)"><path fill="rgb(56,181,73)" fill-opacity="1" d=" M84,0 C84,46.392 46.392,84 0,84 C-46.392,84 -84,46.392 -84,0 C-84,-46.392 -46.392,-84 0,-84 C46.392,-84 84,-46.392 84,0z"></path></g></g></mask><clipPath id="cp_8OoZpkFM"><path d="M0,0 L340,0 L340,280 L0,280z"></path></clipPath><filter id="ujH3A6NEzX" filterUnits="objectBoundingBox" x="0%" y="0%" width="100%" height="100%"><feColorMatrix type="matrix" color-interpolation-filters="linearRGB" values="0.3333 0.3333 0.3333 0 0 0.3333 0.3333 0.3333 0 0 0.3333 0.3333 0.3333 0 0 0 0 0 1 0" result="f1"></feColorMatrix><feColorMatrix type="matrix" color-interpolation-filters="sRGB" values="0 0 0 0 1 0 0 0 0 1 0 0 0 0 1 0 0 0 1 0" result="f2"></feColorMatrix></filter><clipPath id="cp_9EpNFnMP"><path d="M0,0 L340,0 L340,280 L0,280z"></path></clipPath><clipPath id="cp_v0YwAr5T"><path d="M0,0 L340,0 L340,280 L0,280z"></path></clipPath><clipPath id="cp_NyvxZqoi"><path d="M0,0 L340,0 L340,10 L0,10z"></path></clipPath><filter id="6gxKipk5oG" filterUnits="objectBoundingBox" x="0%" y="0%" width="100%" height="100%"><feColorMatrix type="matrix" color-interpolation-filters="linearRGB" values="0.3333 0.3333 0.3333 0 0 0.3333 0.3333 0.3333 0 0 0.3333 0.3333 0.3333 0 0 0 0 0 1 0" result="f1"></feColorMatrix><feColorMatrix type="matrix" color-interpolation-filters="sRGB" values="0 0 0 0 0.92 0 0 0 0 0.26 0 0 0 0 0.21 0 0 0 1 0" result="f2"></feColorMatrix></filter><clipPath id="cp_WOdhx5iX"><path d="M0,0 L10,0 L10,10 L0,10z"></path></clipPath><clipPath id="cp_adCz7Zk2"><path d="M0,0 L10,0 L10,10 L0,10z"></path></clipPath><clipPath id="cp_POh5coDH"><path d="M0,0 L10,0 L10,10 L0,10z"></path></clipPath><clipPath id="cp_OoE73ry5"><path d="M0,0 L10,0 L10,10 L0,10z"></path></clipPath><clipPath id="cp_Nfi3ZcU6"><path d="M0,0 L10,0 L10,10 L0,10z"></path></clipPath><clipPath id="cp_Qek6Kpsu"><path d="M0,0 L10,0 L10,10 L0,10z"></path></clipPath><clipPath id="cp_9TC6gyz1"><path d="M0,0 L10,0 L10,10 L0,10z"></path></clipPath><clipPath id="cp_OimSeH1B"><path d="M0,0 L10,0 L10,10 L0,10z"></path></clipPath><clipPath id="cp_j581qT68"><path d="M0,0 L10,0 L10,10 L0,10z"></path></clipPath><clipPath id="cp_mRpFZcvt"><path d="M0,0 L10,0 L10,10 L0,10z"></path></clipPath><clipPath id="cp_vEiWU8Xg"><path d="M0,0 L10,0 L10,10 L0,10z"></path></clipPath><clipPath id="cp_frO7I9yc"><path d="M0,0 L10,0 L10,10 L0,10z"></path></clipPath><clipPath id="cp_YoQcvAql"><path d="M0,0 L10,0 L10,10 L0,10z"></path></clipPath><clipPath id="cp_pMgC4rZg"><path d="M0,0 L10,0 L10,10 L0,10z"></path></clipPath><clipPath id="cp_4kY3mbjW"><path d="M0,0 L10,0 L10,10 L0,10z"></path></clipPath><clipPath id="cp_RsnTK5li"><path d="M0,0 L10,0 L10,10 L0,10z"></path></clipPath><clipPath id="cp_duCGZoD7"><path d="M0,0 L10,0 L10,10 L0,10z"></path></clipPath><clipPath id="cp_BEIgzLmP"><path d="M0,0 L10,0 L10,10 L0,10z"></path></clipPath><clipPath id="cp_BcXx0dX1"><path d="M0,0 L340,0 L340,10 L0,10z"></path></clipPath><filter id="k7WyNzLpG8" filterUnits="objectBoundingBox" x="0%" y="0%" width="100%" height="100%"><feColorMatrix type="matrix" color-interpolation-filters="linearRGB" values="0.3333 0.3333 0.3333 0 0 0.3333 0.3333 0.3333 0 0 0.3333 0.3333 0.3333 0 0 0 0 0 1 0" result="f1"></feColorMatrix><feColorMatrix type="matrix" color-interpolation-filters="sRGB" values="0 0 0 0 0.26 0 0 0 0 0.52 0 0 0 0 0.96 0 0 0 1 0" result="f2"></feColorMatrix></filter><clipPath id="cp_ozmeFDDM"><path d="M0,0 L10,0 L10,10 L0,10z"></path></clipPath><clipPath id="cp_8XSjoA0E"><path d="M0,0 L10,0 L10,10 L0,10z"></path></clipPath><clipPath id="cp_rcmqUgw4"><path d="M0,0 L10,0 L10,10 L0,10z"></path></clipPath><clipPath id="cp_sQjVP564"><path d="M0,0 L10,0 L10,10 L0,10z"></path></clipPath><clipPath id="cp_vRTCvBYR"><path d="M0,0 L10,0 L10,10 L0,10z"></path></clipPath><clipPath id="cp_Pq9KoQ3h"><path d="M0,0 L10,0 L10,10 L0,10z"></path></clipPath><clipPath id="cp_dXqTYGjQ"><path d="M0,0 L10,0 L10,10 L0,10z"></path></clipPath><clipPath id="cp_dSZfupbj"><path d="M0,0 L10,0 L10,10 L0,10z"></path></clipPath><clipPath id="cp_p94zm7Cx"><path d="M0,0 L10,0 L10,10 L0,10z"></path></clipPath><clipPath id="cp_oQKLfGyx"><path d="M0,0 L10,0 L10,10 L0,10z"></path></clipPath><clipPath id="cp_WHmHPy7K"><path d="M0,0 L10,0 L10,10 L0,10z"></path></clipPath><clipPath id="cp_ooxgenWS"><path d="M0,0 L10,0 L10,10 L0,10z"></path></clipPath><clipPath id="cp_tLJwxQ5Z"><path d="M0,0 L10,0 L10,10 L0,10z"></path></clipPath><clipPath id="cp_LWnd7SWM"><path d="M0,0 L10,0 L10,10 L0,10z"></path></clipPath><clipPath id="cp_cTxox1Dr"><path d="M0,0 L10,0 L10,10 L0,10z"></path></clipPath><clipPath id="cp_Xr83rGMG"><path d="M0,0 L10,0 L10,10 L0,10z"></path></clipPath><clipPath id="cp_64EmiMZJ"><path d="M0,0 L10,0 L10,10 L0,10z"></path></clipPath><clipPath id="cp_Y4DLYUlk"><path d="M0,0 L10,0 L10,10 L0,10z"></path></clipPath><clipPath id="cp_L8wVgEBC"><path d="M0,0 L340,0 L340,10 L0,10z"></path></clipPath><filter id="NRc7f4MeCX" filterUnits="objectBoundingBox" x="0%" y="0%" width="100%" height="100%"><feColorMatrix type="matrix" color-interpolation-filters="linearRGB" values="0.3333 0.3333 0.3333 0 0 0.3333 0.3333 0.3333 0 0 0.3333 0.3333 0.3333 0 0 0 0 0 1 0" result="f1"></feColorMatrix><feColorMatrix type="matrix" color-interpolation-filters="sRGB" values="0 0 0 0 0.98 0 0 0 0 0.73 0 0 0 0 0.02 0 0 0 1 0" result="f2"></feColorMatrix></filter><clipPath id="cp_9k9OKc8V"><path d="M0,0 L10,0 L10,10 L0,10z"></path></clipPath><clipPath id="cp_qfxohcBy"><path d="M0,0 L10,0 L10,10 L0,10z"></path></clipPath><clipPath id="cp_UyIn7CGW"><path d="M0,0 L10,0 L10,10 L0,10z"></path></clipPath><clipPath id="cp_rCXqFrLD"><path d="M0,0 L10,0 L10,10 L0,10z"></path></clipPath><clipPath id="cp_ElJv7qRr"><path d="M0,0 L10,0 L10,10 L0,10z"></path></clipPath><clipPath id="cp_y6u09GaA"><path d="M0,0 L10,0 L10,10 L0,10z"></path></clipPath><clipPath id="cp_wH5vQRAw"><path d="M0,0 L10,0 L10,10 L0,10z"></path></clipPath><clipPath id="cp_xrwBpxur"><path d="M0,0 L10,0 L10,10 L0,10z"></path></clipPath><clipPath id="cp_VKDwk7Oe"><path d="M0,0 L10,0 L10,10 L0,10z"></path></clipPath><clipPath id="cp_55VgWJyy"><path d="M0,0 L10,0 L10,10 L0,10z"></path></clipPath><clipPath id="cp_CrmxKBOu"><path d="M0,0 L10,0 L10,10 L0,10z"></path></clipPath><clipPath id="cp_oIpuwWtm"><path d="M0,0 L10,0 L10,10 L0,10z"></path></clipPath><clipPath id="cp_QJLcxEhZ"><path d="M0,0 L10,0 L10,10 L0,10z"></path></clipPath><clipPath id="cp_dBoDBbpg"><path d="M0,0 L10,0 L10,10 L0,10z"></path></clipPath><clipPath id="cp_5Wwt4nAt"><path d="M0,0 L10,0 L10,10 L0,10z"></path></clipPath><clipPath id="cp_QYGyhmWi"><path d="M0,0 L10,0 L10,10 L0,10z"></path></clipPath><clipPath id="cp_2Mhk8VIB"><path d="M0,0 L10,0 L10,10 L0,10z"></path></clipPath><clipPath id="cp_COAvBXWd"><path d="M0,0 L10,0 L10,10 L0,10z"></path></clipPath></defs><g clip-path="url(#animationMask_PeTMoc25CK)"><g transform="matrix(1,0,0,1,-2.665999999999997,0)" opacity="1" style="user-select: none;"><g opacity="1" transform="matrix(1,0,0,1,187.664,257.048)"><path fill="rgb(237,237,237)" fill-opacity="1" d=" M95.6,0 C95.6,1.858 52.798,3.364 -0.001,3.364 C-52.797999999999995,3.364 -95.6,1.858 -95.6,0 C-95.6,-1.857 -52.797999999999995,-3.364 -0.001,-3.364 C52.798,-3.364 95.6,-1.857 95.6,0z"></path></g></g><g transform="matrix(0.40665,0,0,0.40665,75.72765000000001,36.3554)" opacity="1" style="user-select: none;"><g opacity="1" transform="matrix(1,0,0,1,199.199,255.5)"><path fill="rgb(66,132,244)" fill-opacity="1" d=" M-7200.199,-7129.5 C-7200.199,-7129.5 7199.801,-7129.5 7199.801,-7129.5 C7199.801,-7129.5 7199.801,7270.5 7199.801,7270.5 C7199.801,7270.5 -7200.199,7270.5 -7200.199,7270.5 C-7200.199,7270.5 -7200.199,-7129.5 -7200.199,-7129.5z M-7200.199,7270.5 C-7200.199,7270.5 7199.801,7270.5 7199.801,7270.5 C7199.801,7270.5 7199.801,-7129.5 7199.801,-7129.5 C7199.801,-7129.5 -7200.199,-7129.5 -7200.199,-7129.5 C-7200.199,-7129.5 -7200.199,7270.5 -7200.199,7270.5z M-197.699,-197.907 C-197.699,-197.907 -197.699,-95.139 -197.699,-95.139 C-197.699,-63.221 -198.188,-31.482 -192.816,0.106 C-186.675,36.209 -174.322,70.99000000000001 -157.409,103.427 C-122.779,169.841 -68.144,223.45100000000002 0.189,254.448 C68.52499999999999,223.45100000000002 123.155,169.841 157.785,103.427 C174.697,70.99000000000001 186.674,36.209 192.815,0.106 C198.188,-31.482 197.301,-63.221 197.301,-95.139 C197.301,-95.139 197.301,-197.907 197.301,-197.907 C197.301,-197.907 -0.2,-254.448 -0.2,-254.448 C-0.2,-254.448 -197.699,-197.907 -197.699,-197.907z"></path><g opacity="1" transform="matrix(1,0,0,1,0,0)"></g></g></g><g transform="matrix(0.7319599999999999,0,0,0.7319599999999999,-569.71832,-224.85051999999996)" opacity="1" style="user-select: none;"><g opacity="1" transform="matrix(1.01092,0,0,1.00025,992.5,492.487)"><path stroke-linecap="butt" stroke-linejoin="miter" fill-opacity="0" stroke-miterlimit="4" stroke="rgb(255,255,255)" stroke-opacity="1" stroke-width="15" d=" M-27,16.355 C-27,16.355 -26.75,-38.712 -26.75,-38.712 C-26.75,-54.304 -15.566,-66.99 -0.551,-66.985 C14.449,-66.98 25.654,-54.304 25.654,-38.712 C25.654,-38.712 25.404,16.355 25.404,16.355"></path></g></g><g transform="matrix(0.7319599999999999,0,0,0.7319599999999999,-569.71832,-230.70651999999998)" opacity="1" style="user-select: none;"><g opacity="1" transform="matrix(1,0,0,1,992.5,491.987)"><path fill="rgb(255,255,255)" fill-opacity="1" d=" M42.695,-11.987 C42.695,-11.987 -42.563,-11.987 -42.563,-11.987 C-47.253,-11.987 -51.5,-8.021 -51.5,-3.333 C-51.5,-3.333 -51.5,64.872 -51.5,64.872 C-51.5,69.561 -47.253,73.013 -42.563,73.013 C-42.563,73.013 42.695,73.013 42.695,73.013 C47.384,73.013 51.5,69.561 51.5,64.872 C51.5,64.872 51.5,-3.334 51.5,-3.334 C51.5,-8.021 47.384,-11.987 42.695,-11.987z"></path></g><g opacity="1" transform="matrix(1,0,0,1,992.5,491.987)"><path fill="rgb(51,102,183)" fill-opacity="1" d=" M5.5,34.361 C5.5,34.361 5.5,49.013 5.5,49.013 C5.5,49.013 -5.5,49.013 -5.5,49.013 C-5.5,49.013 -5.5,34.361 -5.5,34.361 C-10.5,32.238 -13.929,27.293 -13.929,21.53 C-13.929,13.832 -7.66,7.591 0.038,7.591 C7.736000000000001,7.591 13.981,13.832 13.981,21.53 C13.981,27.293 10.5,32.238 5.5,34.361z"></path></g></g><g transform="matrix(0.5800337496259208,0,0,0.5800337496259208,143.70300550009415,106.29527505237108)" opacity="1" style="user-select: none;"><g opacity="1" transform="matrix(1,0,0,1,163.987,140)"><path fill="rgb(56,181,73)" fill-opacity="1" d=" M84,0 C84,46.392 46.392,84 0,84 C-46.392,84 -84,46.392 -84,0 C-84,-46.392 -46.392,-84 0,-84 C46.392,-84 84,-46.392 84,0z"></path></g></g><g class="1" clip-path="url(#cp_9EpNFnMP)" transform="matrix(0.5950854000000001,0,0,0.5950854000000001,153.093912,106.37360399999997)" opacity="1"><g clip-path="url(#cp_L8wVgEBC)" filter="url(#NRc7f4MeCX)" transform="matrix(1,0,0,1,105,159.333)" opacity="1"><g clip-path="url(#cp_COAvBXWd)" transform="matrix(1,0,0,1,324,0)" opacity="1"><g transform="matrix(1,0,0,1,40.449,9.449)" opacity="1" style="user-select: none; display: none;"><g opacity="1" transform="matrix(1,0,0,1,-35.449,-4.449)"><path fill="rgb(216,40,40)" fill-opacity="1" d=" M0,-4.295433527333397 C2.3706497637353015,-4.295433527333397 4.295433527333397,-2.3706497637353015 4.295433527333397,0 C4.295433527333397,2.3706497637353015 2.3706497637353015,4.295433527333397 0,4.295433527333397 C-2.3706497637353015,4.295433527333397 -4.295433527333397,2.3706497637353015 -4.295433527333397,0 C-4.295433527333397,-2.3706497637353015 -2.3706497637353015,-4.295433527333397 0,-4.295433527333397z" style="display: none;"></path><path stroke-linecap="butt" stroke-linejoin="miter" fill-opacity="0" stroke-miterlimit="4" stroke="rgb(255,255,255)" stroke-opacity="1" stroke-width="0" d=" M0,-4.295433527333397 C2.3706497637353015,-4.295433527333397 4.295433527333397,-2.3706497637353015 4.295433527333397,0 C4.295433527333397,2.3706497637353015 2.3706497637353015,4.295433527333397 0,4.295433527333397 C-2.3706497637353015,4.295433527333397 -4.295433527333397,2.3706497637353015 -4.295433527333397,0 C-4.295433527333397,-2.3706497637353015 -2.3706497637353015,-4.295433527333397 0,-4.295433527333397z" style="display: none;"></path></g></g></g><g clip-path="url(#cp_2Mhk8VIB)" transform="matrix(1,0,0,1,304,0)" opacity="1"><g transform="matrix(1,0,0,1,40.449,9.449)" opacity="1" style="user-select: none; display: none;"><g opacity="1" transform="matrix(1,0,0,1,-35.449,-4.449)"><path fill="rgb(216,40,40)" fill-opacity="1" d=" M0,-4.987143480976966 C2.7524044871511877,-4.987143480976966 4.987143480976966,-2.7524044871511877 4.987143480976966,0 C4.987143480976966,2.7524044871511877 2.7524044871511877,4.987143480976966 0,4.987143480976966 C-2.7524044871511877,4.987143480976966 -4.987143480976966,2.7524044871511877 -4.987143480976966,0 C-4.987143480976966,-2.7524044871511877 -2.7524044871511877,-4.987143480976966 0,-4.987143480976966z" style="display: none;"></path><path stroke-linecap="butt" stroke-linejoin="miter" fill-opacity="0" stroke-miterlimit="4" stroke="rgb(255,255,255)" stroke-opacity="1" stroke-width="0" d=" M0,-4.987143480976966 C2.7524044871511877,-4.987143480976966 4.987143480976966,-2.7524044871511877 4.987143480976966,0 C4.987143480976966,2.7524044871511877 2.7524044871511877,4.987143480976966 0,4.987143480976966 C-2.7524044871511877,4.987143480976966 -4.987143480976966,2.7524044871511877 -4.987143480976966,0 C-4.987143480976966,-2.7524044871511877 -2.7524044871511877,-4.987143480976966 0,-4.987143480976966z" style="display: none;"></path></g></g></g><g clip-path="url(#cp_QYGyhmWi)" transform="matrix(1,0,0,1,284,0)" opacity="1"><g transform="matrix(1,0,0,1,40.449,9.449)" opacity="1" style="user-select: none; display: none;"><g opacity="1" transform="matrix(1,0,0,1,-35.449,-4.449)"><path fill="rgb(216,40,40)" fill-opacity="1" d=" M0,-2.9899645124921195 C1.6501614144444006,-2.9899645124921195 2.9899645124921195,-1.6501614144444006 2.9899645124921195,0 C2.9899645124921195,1.6501614144444006 1.6501614144444006,2.9899645124921195 0,2.9899645124921195 C-1.6501614144444006,2.9899645124921195 -2.9899645124921195,1.6501614144444006 -2.9899645124921195,0 C-2.9899645124921195,-1.6501614144444006 -1.6501614144444006,-2.9899645124921195 0,-2.9899645124921195z" style="display: none;"></path><path stroke-linecap="butt" stroke-linejoin="miter" fill-opacity="0" stroke-miterlimit="4" stroke="rgb(255,255,255)" stroke-opacity="1" stroke-width="0" d=" M0,-2.9899645124921195 C1.6501614144444006,-2.9899645124921195 2.9899645124921195,-1.6501614144444006 2.9899645124921195,0 C2.9899645124921195,1.6501614144444006 1.6501614144444006,2.9899645124921195 0,2.9899645124921195 C-1.6501614144444006,2.9899645124921195 -2.9899645124921195,1.6501614144444006 -2.9899645124921195,0 C-2.9899645124921195,-1.6501614144444006 -1.6501614144444006,-2.9899645124921195 0,-2.9899645124921195z" style="display: none;"></path></g></g></g><g clip-path="url(#cp_5Wwt4nAt)" transform="matrix(1,0,0,1,264,0)" opacity="1"><g transform="matrix(1,0,0,1,40.449,9.449)" opacity="1" style="user-select: none; display: none;"><g opacity="1" transform="matrix(1,0,0,1,-35.449,-4.449)"><path fill="rgb(216,40,40)" fill-opacity="1" d=" M0,-0.06208187888807424 C0.03426298895832817,-0.06208187888807424 0.06208187888807424,-0.03426298895832817 0.06208187888807424,0 C0.06208187888807424,0.03426298895832817 0.03426298895832817,0.06208187888807424 0,0.06208187888807424 C-0.03426298895832817,0.06208187888807424 -0.06208187888807424,0.03426298895832817 -0.06208187888807424,0 C-0.06208187888807424,-0.03426298895832817 -0.03426298895832817,-0.06208187888807424 0,-0.06208187888807424z" style="display: none;"></path><path stroke-linecap="butt" stroke-linejoin="miter" fill-opacity="0" stroke-miterlimit="4" stroke="rgb(255,255,255)" stroke-opacity="1" stroke-width="0" d=" M0,-0.06208187888807424 C0.03426298895832817,-0.06208187888807424 0.06208187888807424,-0.03426298895832817 0.06208187888807424,0 C0.06208187888807424,0.03426298895832817 0.03426298895832817,0.06208187888807424 0,0.06208187888807424 C-0.03426298895832817,0.06208187888807424 -0.06208187888807424,0.03426298895832817 -0.06208187888807424,0 C-0.06208187888807424,-0.03426298895832817 -0.03426298895832817,-0.06208187888807424 0,-0.06208187888807424z" style="display: none;"></path></g></g></g><g clip-path="url(#cp_dBoDBbpg)"><g style="user-select: none; display: none;"><g><path style="display: none;"></path><path stroke-linecap="butt" stroke-linejoin="miter" fill-opacity="0" stroke-miterlimit="4" style="display: none;"></path></g></g></g><g clip-path="url(#cp_QJLcxEhZ)"><g style="user-select: none; display: none;"><g><path style="display: none;"></path><path stroke-linecap="butt" stroke-linejoin="miter" fill-opacity="0" stroke-miterlimit="4" style="display: none;"></path></g></g></g><g clip-path="url(#cp_oIpuwWtm)"><g style="user-select: none; display: none;"><g><path style="display: none;"></path><path stroke-linecap="butt" stroke-linejoin="miter" fill-opacity="0" stroke-miterlimit="4" style="display: none;"></path></g></g></g><g clip-path="url(#cp_CrmxKBOu)"><g style="user-select: none; display: none;"><g><path style="display: none;"></path><path stroke-linecap="butt" stroke-linejoin="miter" fill-opacity="0" stroke-miterlimit="4" style="display: none;"></path></g></g></g><g clip-path="url(#cp_55VgWJyy)"><g style="user-select: none; display: none;"><g><path style="display: none;"></path><path stroke-linecap="butt" stroke-linejoin="miter" fill-opacity="0" stroke-miterlimit="4" style="display: none;"></path></g></g></g><g clip-path="url(#cp_VKDwk7Oe)"><g style="user-select: none; display: none;"><g><path style="display: none;"></path><path stroke-linecap="butt" stroke-linejoin="miter" fill-opacity="0" stroke-miterlimit="4" style="display: none;"></path></g></g></g><g clip-path="url(#cp_xrwBpxur)"><g style="user-select: none; display: none;"><g><path style="display: none;"></path><path stroke-linecap="butt" stroke-linejoin="miter" fill-opacity="0" stroke-miterlimit="4" style="display: none;"></path></g></g></g><g clip-path="url(#cp_wH5vQRAw)"><g style="user-select: none; display: none;"><g><path style="display: none;"></path><path stroke-linecap="butt" stroke-linejoin="miter" fill-opacity="0" stroke-miterlimit="4" style="display: none;"></path></g></g></g><g clip-path="url(#cp_y6u09GaA)"><g style="user-select: none; display: none;"><g><path style="display: none;"></path><path stroke-linecap="butt" stroke-linejoin="miter" fill-opacity="0" stroke-miterlimit="4" style="display: none;"></path></g></g></g><g clip-path="url(#cp_ElJv7qRr)"><g style="user-select: none; display: none;"><g><path style="display: none;"></path><path stroke-linecap="butt" stroke-linejoin="miter" fill-opacity="0" stroke-miterlimit="4" style="display: none;"></path></g></g></g><g clip-path="url(#cp_rCXqFrLD)"><g style="user-select: none; display: none;"><g><path style="display: none;"></path><path stroke-linecap="butt" stroke-linejoin="miter" fill-opacity="0" stroke-miterlimit="4" style="display: none;"></path></g></g></g><g clip-path="url(#cp_UyIn7CGW)"><g style="user-select: none; display: none;"><g><path style="display: none;"></path><path stroke-linecap="butt" stroke-linejoin="miter" fill-opacity="0" stroke-miterlimit="4" style="display: none;"></path></g></g></g><g clip-path="url(#cp_qfxohcBy)"><g style="user-select: none; display: none;"><g><path style="display: none;"></path><path stroke-linecap="butt" stroke-linejoin="miter" fill-opacity="0" stroke-miterlimit="4" style="display: none;"></path></g></g></g><g clip-path="url(#cp_9k9OKc8V)"><g style="user-select: none; display: none;"><g><path style="display: none;"></path><path stroke-linecap="butt" stroke-linejoin="miter" fill-opacity="0" stroke-miterlimit="4" style="display: none;"></path></g></g></g></g><g clip-path="url(#cp_BcXx0dX1)" filter="url(#k7WyNzLpG8)" transform="matrix(1,0,0,1,105,131.833)" opacity="1"><g clip-path="url(#cp_Y4DLYUlk)" transform="matrix(1,0,0,1,324,0)" opacity="1"><g transform="matrix(1,0,0,1,40.449,9.449)" opacity="1" style="user-select: none; display: none;"><g opacity="1" transform="matrix(1,0,0,1,-35.449,-4.449)"><path fill="rgb(216,40,40)" fill-opacity="1" d=" M0,0 C0,0 0,0 0,0 C0,0 0,0 0,0 C0,0 0,0 0,0 C0,0 0,0 0,0z" style="display: none;"></path><path stroke-linecap="butt" stroke-linejoin="miter" fill-opacity="0" stroke-miterlimit="4" stroke="rgb(255,255,255)" stroke-opacity="1" stroke-width="0" d=" M0,0 C0,0 0,0 0,0 C0,0 0,0 0,0 C0,0 0,0 0,0 C0,0 0,0 0,0z" style="display: none;"></path></g></g></g><g clip-path="url(#cp_64EmiMZJ)" transform="matrix(1,0,0,1,304,0)" opacity="1"><g transform="matrix(1,0,0,1,40.449,9.449)" opacity="1" style="user-select: none; display: none;"><g opacity="1" transform="matrix(1,0,0,1,-35.449,-4.449)"><path fill="rgb(216,40,40)" fill-opacity="1" d=" M0,-1.383941269192328 C0.7637971864672458,-1.383941269192328 1.383941269192328,-0.7637971864672458 1.383941269192328,0 C1.383941269192328,0.7637971864672458 0.7637971864672458,1.383941269192328 0,1.383941269192328 C-0.7637971864672458,1.383941269192328 -1.383941269192328,0.7637971864672458 -1.383941269192328,0 C-1.383941269192328,-0.7637971864672458 -0.7637971864672458,-1.383941269192328 0,-1.383941269192328z" style="display: none;"></path><path stroke-linecap="butt" stroke-linejoin="miter" fill-opacity="0" stroke-miterlimit="4" stroke="rgb(255,255,255)" stroke-opacity="1" stroke-width="0" d=" M0,-1.383941269192328 C0.7637971864672458,-1.383941269192328 1.383941269192328,-0.7637971864672458 1.383941269192328,0 C1.383941269192328,0.7637971864672458 0.7637971864672458,1.383941269192328 0,1.383941269192328 C-0.7637971864672458,1.383941269192328 -1.383941269192328,0.7637971864672458 -1.383941269192328,0 C-1.383941269192328,-0.7637971864672458 -0.7637971864672458,-1.383941269192328 0,-1.383941269192328z" style="display: none;"></path></g></g></g><g clip-path="url(#cp_Xr83rGMG)" transform="matrix(1,0,0,1,284,0)" opacity="1"><g transform="matrix(1,0,0,1,40.449,9.449)" opacity="1" style="user-select: none; display: none;"><g opacity="1" transform="matrix(1,0,0,1,-35.449,-4.449)"><path fill="rgb(216,40,40)" fill-opacity="1" d=" M0,-2.990690189950391 C1.6505619158336204,-2.990690189950391 2.990690189950391,-1.6505619158336204 2.990690189950391,0 C2.990690189950391,1.6505619158336204 1.6505619158336204,2.990690189950391 0,2.990690189950391 C-1.6505619158336204,2.990690189950391 -2.990690189950391,1.6505619158336204 -2.990690189950391,0 C-2.990690189950391,-1.6505619158336204 -1.6505619158336204,-2.990690189950391 0,-2.990690189950391z" style="display: none;"></path><path stroke-linecap="butt" stroke-linejoin="miter" fill-opacity="0" stroke-miterlimit="4" stroke="rgb(255,255,255)" stroke-opacity="1" stroke-width="0" d=" M0,-2.990690189950391 C1.6505619158336204,-2.990690189950391 2.990690189950391,-1.6505619158336204 2.990690189950391,0 C2.990690189950391,1.6505619158336204 1.6505619158336204,2.990690189950391 0,2.990690189950391 C-1.6505619158336204,2.990690189950391 -2.990690189950391,1.6505619158336204 -2.990690189950391,0 C-2.990690189950391,-1.6505619158336204 -1.6505619158336204,-2.990690189950391 0,-2.990690189950391z" style="display: none;"></path></g></g></g><g clip-path="url(#cp_cTxox1Dr)" transform="matrix(1,0,0,1,264,0)" opacity="1"><g transform="matrix(1,0,0,1,40.449,9.449)" opacity="1" style="user-select: none; display: none;"><g opacity="1" transform="matrix(1,0,0,1,-35.449,-4.449)"><path fill="rgb(216,40,40)" fill-opacity="1" d=" M0,-4.295433527333397 C2.3706497637353015,-4.295433527333397 4.295433527333397,-2.3706497637353015 4.295433527333397,0 C4.295433527333397,2.3706497637353015 2.3706497637353015,4.295433527333397 0,4.295433527333397 C-2.3706497637353015,4.295433527333397 -4.295433527333397,2.3706497637353015 -4.295433527333397,0 C-4.295433527333397,-2.3706497637353015 -2.3706497637353015,-4.295433527333397 0,-4.295433527333397z" style="display: none;"></path><path stroke-linecap="butt" stroke-linejoin="miter" fill-opacity="0" stroke-miterlimit="4" stroke="rgb(255,255,255)" stroke-opacity="1" stroke-width="0" d=" M0,-4.295433527333397 C2.3706497637353015,-4.295433527333397 4.295433527333397,-2.3706497637353015 4.295433527333397,0 C4.295433527333397,2.3706497637353015 2.3706497637353015,4.295433527333397 0,4.295433527333397 C-2.3706497637353015,4.295433527333397 -4.295433527333397,2.3706497637353015 -4.295433527333397,0 C-4.295433527333397,-2.3706497637353015 -2.3706497637353015,-4.295433527333397 0,-4.295433527333397z" style="display: none;"></path></g></g></g><g clip-path="url(#cp_LWnd7SWM)" transform="matrix(1,0,0,1,244,0)" opacity="1"><g transform="matrix(1,0,0,1,40.449,9.449)" opacity="1" style="user-select: none; display: none;"><g opacity="1" transform="matrix(1,0,0,1,-35.449,-4.449)"><path fill="rgb(216,40,40)" fill-opacity="1" d=" M0,-4.987143480976966 C2.7524044871511877,-4.987143480976966 4.987143480976966,-2.7524044871511877 4.987143480976966,0 C4.987143480976966,2.7524044871511877 2.7524044871511877,4.987143480976966 0,4.987143480976966 C-2.7524044871511877,4.987143480976966 -4.987143480976966,2.7524044871511877 -4.987143480976966,0 C-4.987143480976966,-2.7524044871511877 -2.7524044871511877,-4.987143480976966 0,-4.987143480976966z" style="display: none;"></path><path stroke-linecap="butt" stroke-linejoin="miter" fill-opacity="0" stroke-miterlimit="4" stroke="rgb(255,255,255)" stroke-opacity="1" stroke-width="0" d=" M0,-4.987143480976966 C2.7524044871511877,-4.987143480976966 4.987143480976966,-2.7524044871511877 4.987143480976966,0 C4.987143480976966,2.7524044871511877 2.7524044871511877,4.987143480976966 0,4.987143480976966 C-2.7524044871511877,4.987143480976966 -4.987143480976966,2.7524044871511877 -4.987143480976966,0 C-4.987143480976966,-2.7524044871511877 -2.7524044871511877,-4.987143480976966 0,-4.987143480976966z" style="display: none;"></path></g></g></g><g clip-path="url(#cp_tLJwxQ5Z)" transform="matrix(1,0,0,1,224,0)" opacity="1"><g transform="matrix(1,0,0,1,40.449,9.449)" opacity="1" style="user-select: none; display: none;"><g opacity="1" transform="matrix(1,0,0,1,-35.449,-4.449)"><path fill="rgb(216,40,40)" fill-opacity="1" d=" M0,-2.9899645124921195 C1.6501614144444006,-2.9899645124921195 2.9899645124921195,-1.6501614144444006 2.9899645124921195,0 C2.9899645124921195,1.6501614144444006 1.6501614144444006,2.9899645124921195 0,2.9899645124921195 C-1.6501614144444006,2.9899645124921195 -2.9899645124921195,1.6501614144444006 -2.9899645124921195,0 C-2.9899645124921195,-1.6501614144444006 -1.6501614144444006,-2.9899645124921195 0,-2.9899645124921195z" style="display: none;"></path><path stroke-linecap="butt" stroke-linejoin="miter" fill-opacity="0" stroke-miterlimit="4" stroke="rgb(255,255,255)" stroke-opacity="1" stroke-width="0" d=" M0,-2.9899645124921195 C1.6501614144444006,-2.9899645124921195 2.9899645124921195,-1.6501614144444006 2.9899645124921195,0 C2.9899645124921195,1.6501614144444006 1.6501614144444006,2.9899645124921195 0,2.9899645124921195 C-1.6501614144444006,2.9899645124921195 -2.9899645124921195,1.6501614144444006 -2.9899645124921195,0 C-2.9899645124921195,-1.6501614144444006 -1.6501614144444006,-2.9899645124921195 0,-2.9899645124921195z" style="display: none;"></path></g></g></g><g clip-path="url(#cp_ooxgenWS)" transform="matrix(1,0,0,1,224,0)" opacity="1"><g transform="matrix(1,0,0,1,40.449,9.449)" opacity="1" style="user-select: none; display: none;"><g opacity="1" transform="matrix(1,0,0,1,-35.449,-4.449)"><path fill="rgb(216,40,40)" fill-opacity="1" d=" M0,-0.06208187888807424 C0.03426298895832817,-0.06208187888807424 0.06208187888807424,-0.03426298895832817 0.06208187888807424,0 C0.06208187888807424,0.03426298895832817 0.03426298895832817,0.06208187888807424 0,0.06208187888807424 C-0.03426298895832817,0.06208187888807424 -0.06208187888807424,0.03426298895832817 -0.06208187888807424,0 C-0.06208187888807424,-0.03426298895832817 -0.03426298895832817,-0.06208187888807424 0,-0.06208187888807424z" style="display: none;"></path><path stroke-linecap="butt" stroke-linejoin="miter" fill-opacity="0" stroke-miterlimit="4" stroke="rgb(255,255,255)" stroke-opacity="1" stroke-width="0" d=" M0,-0.06208187888807424 C0.03426298895832817,-0.06208187888807424 0.06208187888807424,-0.03426298895832817 0.06208187888807424,0 C0.06208187888807424,0.03426298895832817 0.03426298895832817,0.06208187888807424 0,0.06208187888807424 C-0.03426298895832817,0.06208187888807424 -0.06208187888807424,0.03426298895832817 -0.06208187888807424,0 C-0.06208187888807424,-0.03426298895832817 -0.03426298895832817,-0.06208187888807424 0,-0.06208187888807424z" style="display: none;"></path></g></g></g><g clip-path="url(#cp_WHmHPy7K)"><g style="user-select: none; display: none;"><g><path style="display: none;"></path><path stroke-linecap="butt" stroke-linejoin="miter" fill-opacity="0" stroke-miterlimit="4" style="display: none;"></path></g></g></g><g clip-path="url(#cp_oQKLfGyx)"><g style="user-select: none; display: none;"><g><path style="display: none;"></path><path stroke-linecap="butt" stroke-linejoin="miter" fill-opacity="0" stroke-miterlimit="4" style="display: none;"></path></g></g></g><g clip-path="url(#cp_p94zm7Cx)"><g style="user-select: none; display: none;"><g><path style="display: none;"></path><path stroke-linecap="butt" stroke-linejoin="miter" fill-opacity="0" stroke-miterlimit="4" style="display: none;"></path></g></g></g><g clip-path="url(#cp_dSZfupbj)"><g style="user-select: none; display: none;"><g><path style="display: none;"></path><path stroke-linecap="butt" stroke-linejoin="miter" fill-opacity="0" stroke-miterlimit="4" style="display: none;"></path></g></g></g><g clip-path="url(#cp_dXqTYGjQ)"><g style="user-select: none; display: none;"><g><path style="display: none;"></path><path stroke-linecap="butt" stroke-linejoin="miter" fill-opacity="0" stroke-miterlimit="4" style="display: none;"></path></g></g></g><g clip-path="url(#cp_Pq9KoQ3h)"><g style="user-select: none; display: none;"><g><path style="display: none;"></path><path stroke-linecap="butt" stroke-linejoin="miter" fill-opacity="0" stroke-miterlimit="4" style="display: none;"></path></g></g></g><g clip-path="url(#cp_vRTCvBYR)"><g style="user-select: none; display: none;"><g><path style="display: none;"></path><path stroke-linecap="butt" stroke-linejoin="miter" fill-opacity="0" stroke-miterlimit="4" style="display: none;"></path></g></g></g><g clip-path="url(#cp_sQjVP564)"><g style="user-select: none; display: none;"><g><path style="display: none;"></path><path stroke-linecap="butt" stroke-linejoin="miter" fill-opacity="0" stroke-miterlimit="4" style="display: none;"></path></g></g></g><g clip-path="url(#cp_rcmqUgw4)"><g style="user-select: none; display: none;"><g><path style="display: none;"></path><path stroke-linecap="butt" stroke-linejoin="miter" fill-opacity="0" stroke-miterlimit="4" style="display: none;"></path></g></g></g><g clip-path="url(#cp_8XSjoA0E)"><g style="user-select: none; display: none;"><g><path style="display: none;"></path><path stroke-linecap="butt" stroke-linejoin="miter" fill-opacity="0" stroke-miterlimit="4" style="display: none;"></path></g></g></g><g clip-path="url(#cp_ozmeFDDM)"><g style="user-select: none; display: none;"><g><path style="display: none;"></path><path stroke-linecap="butt" stroke-linejoin="miter" fill-opacity="0" stroke-miterlimit="4" style="display: none;"></path></g></g></g></g><g clip-path="url(#cp_NyvxZqoi)" filter="url(#6gxKipk5oG)" transform="matrix(1,0,0,1,105,105.333)" opacity="1"><g clip-path="url(#cp_BEIgzLmP)" transform="matrix(1,0,0,1,324,0)" opacity="1"><g transform="matrix(1,0,0,1,40.449,9.449)" opacity="1" style="user-select: none; display: none;"><g opacity="1" transform="matrix(1,0,0,1,-35.449,-4.449)"><path fill="rgb(216,40,40)" fill-opacity="1" d=" M0,0 C0,0 0,0 0,0 C0,0 0,0 0,0 C0,0 0,0 0,0 C0,0 0,0 0,0z" style="display: none;"></path><path stroke-linecap="butt" stroke-linejoin="miter" fill-opacity="0" stroke-miterlimit="4" stroke="rgb(255,255,255)" stroke-opacity="1" stroke-width="0" d=" M0,0 C0,0 0,0 0,0 C0,0 0,0 0,0 C0,0 0,0 0,0 C0,0 0,0 0,0z" style="display: none;"></path></g></g></g><g clip-path="url(#cp_duCGZoD7)" transform="matrix(1,0,0,1,304,0)" opacity="1"><g transform="matrix(1,0,0,1,40.449,9.449)" opacity="1" style="user-select: none; display: none;"><g opacity="1" transform="matrix(1,0,0,1,-35.449,-4.449)"><path fill="rgb(216,40,40)" fill-opacity="1" d=" M0,0 C0,0 0,0 0,0 C0,0 0,0 0,0 C0,0 0,0 0,0 C0,0 0,0 0,0z" style="display: none;"></path><path stroke-linecap="butt" stroke-linejoin="miter" fill-opacity="0" stroke-miterlimit="4" stroke="rgb(255,255,255)" stroke-opacity="1" stroke-width="0" d=" M0,0 C0,0 0,0 0,0 C0,0 0,0 0,0 C0,0 0,0 0,0 C0,0 0,0 0,0z" style="display: none;"></path></g></g></g><g clip-path="url(#cp_RsnTK5li)" transform="matrix(1,0,0,1,284,0)" opacity="1"><g transform="matrix(1,0,0,1,40.449,9.449)" opacity="1" style="user-select: none; display: none;"><g opacity="1" transform="matrix(1,0,0,1,-35.449,-4.449)"><path fill="rgb(216,40,40)" fill-opacity="1" d=" M0,0 C0,0 0,0 0,0 C0,0 0,0 0,0 C0,0 0,0 0,0 C0,0 0,0 0,0z" style="display: none;"></path><path stroke-linecap="butt" stroke-linejoin="miter" fill-opacity="0" stroke-miterlimit="4" stroke="rgb(255,255,255)" stroke-opacity="1" stroke-width="0" d=" M0,0 C0,0 0,0 0,0 C0,0 0,0 0,0 C0,0 0,0 0,0 C0,0 0,0 0,0z" style="display: none;"></path></g></g></g><g clip-path="url(#cp_4kY3mbjW)" transform="matrix(1,0,0,1,264,0)" opacity="1"><g transform="matrix(1,0,0,1,40.449,9.449)" opacity="1" style="user-select: none; display: none;"><g opacity="1" transform="matrix(1,0,0,1,-35.449,-4.449)"><path fill="rgb(216,40,40)" fill-opacity="1" d=" M0,0 C0,0 0,0 0,0 C0,0 0,0 0,0 C0,0 0,0 0,0 C0,0 0,0 0,0z" style="display: none;"></path><path stroke-linecap="butt" stroke-linejoin="miter" fill-opacity="0" stroke-miterlimit="4" stroke="rgb(255,255,255)" stroke-opacity="1" stroke-width="0" d=" M0,0 C0,0 0,0 0,0 C0,0 0,0 0,0 C0,0 0,0 0,0 C0,0 0,0 0,0z" style="display: none;"></path></g></g></g><g clip-path="url(#cp_pMgC4rZg)" transform="matrix(1,0,0,1,244,0)" opacity="1"><g transform="matrix(1,0,0,1,40.449,9.449)" opacity="1" style="user-select: none; display: none;"><g opacity="1" transform="matrix(1,0,0,1,-35.449,-4.449)"><path fill="rgb(216,40,40)" fill-opacity="1" d=" M0,-1.383941269192328 C0.7637971864672458,-1.383941269192328 1.383941269192328,-0.7637971864672458 1.383941269192328,0 C1.383941269192328,0.7637971864672458 0.7637971864672458,1.383941269192328 0,1.383941269192328 C-0.7637971864672458,1.383941269192328 -1.383941269192328,0.7637971864672458 -1.383941269192328,0 C-1.383941269192328,-0.7637971864672458 -0.7637971864672458,-1.383941269192328 0,-1.383941269192328z" style="display: none;"></path><path stroke-linecap="butt" stroke-linejoin="miter" fill-opacity="0" stroke-miterlimit="4" stroke="rgb(255,255,255)" stroke-opacity="1" stroke-width="0" d=" M0,-1.383941269192328 C0.7637971864672458,-1.383941269192328 1.383941269192328,-0.7637971864672458 1.383941269192328,0 C1.383941269192328,0.7637971864672458 0.7637971864672458,1.383941269192328 0,1.383941269192328 C-0.7637971864672458,1.383941269192328 -1.383941269192328,0.7637971864672458 -1.383941269192328,0 C-1.383941269192328,-0.7637971864672458 -0.7637971864672458,-1.383941269192328 0,-1.383941269192328z" style="display: none;"></path></g></g></g><g clip-path="url(#cp_YoQcvAql)" transform="matrix(1,0,0,1,224,0)" opacity="1"><g transform="matrix(1,0,0,1,40.449,9.449)" opacity="1" style="user-select: none; display: none;"><g opacity="1" transform="matrix(1,0,0,1,-35.449,-4.449)"><path fill="rgb(216,40,40)" fill-opacity="1" d=" M0,-2.990690189950391 C1.6505619158336204,-2.990690189950391 2.990690189950391,-1.6505619158336204 2.990690189950391,0 C2.990690189950391,1.6505619158336204 1.6505619158336204,2.990690189950391 0,2.990690189950391 C-1.6505619158336204,2.990690189950391 -2.990690189950391,1.6505619158336204 -2.990690189950391,0 C-2.990690189950391,-1.6505619158336204 -1.6505619158336204,-2.990690189950391 0,-2.990690189950391z" style="display: none;"></path><path stroke-linecap="butt" stroke-linejoin="miter" fill-opacity="0" stroke-miterlimit="4" stroke="rgb(255,255,255)" stroke-opacity="1" stroke-width="0" d=" M0,-2.990690189950391 C1.6505619158336204,-2.990690189950391 2.990690189950391,-1.6505619158336204 2.990690189950391,0 C2.990690189950391,1.6505619158336204 1.6505619158336204,2.990690189950391 0,2.990690189950391 C-1.6505619158336204,2.990690189950391 -2.990690189950391,1.6505619158336204 -2.990690189950391,0 C-2.990690189950391,-1.6505619158336204 -1.6505619158336204,-2.990690189950391 0,-2.990690189950391z" style="display: none;"></path></g></g></g><g clip-path="url(#cp_frO7I9yc)" transform="matrix(1,0,0,1,224,0)" opacity="1"><g transform="matrix(1,0,0,1,40.449,9.449)" opacity="1" style="user-select: none; display: none;"><g opacity="1" transform="matrix(1,0,0,1,-35.449,-4.449)"><path fill="rgb(216,40,40)" fill-opacity="1" d=" M0,-4.295433527333397 C2.3706497637353015,-4.295433527333397 4.295433527333397,-2.3706497637353015 4.295433527333397,0 C4.295433527333397,2.3706497637353015 2.3706497637353015,4.295433527333397 0,4.295433527333397 C-2.3706497637353015,4.295433527333397 -4.295433527333397,2.3706497637353015 -4.295433527333397,0 C-4.295433527333397,-2.3706497637353015 -2.3706497637353015,-4.295433527333397 0,-4.295433527333397z" style="display: none;"></path><path stroke-linecap="butt" stroke-linejoin="miter" fill-opacity="0" stroke-miterlimit="4" stroke="rgb(255,255,255)" stroke-opacity="1" stroke-width="0" d=" M0,-4.295433527333397 C2.3706497637353015,-4.295433527333397 4.295433527333397,-2.3706497637353015 4.295433527333397,0 C4.295433527333397,2.3706497637353015 2.3706497637353015,4.295433527333397 0,4.295433527333397 C-2.3706497637353015,4.295433527333397 -4.295433527333397,2.3706497637353015 -4.295433527333397,0 C-4.295433527333397,-2.3706497637353015 -2.3706497637353015,-4.295433527333397 0,-4.295433527333397z" style="display: none;"></path></g></g></g><g clip-path="url(#cp_vEiWU8Xg)" transform="matrix(1,0,0,1,204,0)" opacity="1"><g transform="matrix(1,0,0,1,40.449,9.449)" opacity="1" style="user-select: none; display: none;"><g opacity="1" transform="matrix(1,0,0,1,-35.449,-4.449)"><path fill="rgb(216,40,40)" fill-opacity="1" d=" M0,-4.987143480976966 C2.7524044871511877,-4.987143480976966 4.987143480976966,-2.7524044871511877 4.987143480976966,0 C4.987143480976966,2.7524044871511877 2.7524044871511877,4.987143480976966 0,4.987143480976966 C-2.7524044871511877,4.987143480976966 -4.987143480976966,2.7524044871511877 -4.987143480976966,0 C-4.987143480976966,-2.7524044871511877 -2.7524044871511877,-4.987143480976966 0,-4.987143480976966z" style="display: none;"></path><path stroke-linecap="butt" stroke-linejoin="miter" fill-opacity="0" stroke-miterlimit="4" stroke="rgb(255,255,255)" stroke-opacity="1" stroke-width="0" d=" M0,-4.987143480976966 C2.7524044871511877,-4.987143480976966 4.987143480976966,-2.7524044871511877 4.987143480976966,0 C4.987143480976966,2.7524044871511877 2.7524044871511877,4.987143480976966 0,4.987143480976966 C-2.7524044871511877,4.987143480976966 -4.987143480976966,2.7524044871511877 -4.987143480976966,0 C-4.987143480976966,-2.7524044871511877 -2.7524044871511877,-4.987143480976966 0,-4.987143480976966z" style="display: none;"></path></g></g></g><g clip-path="url(#cp_mRpFZcvt)" transform="matrix(1,0,0,1,184,0)" opacity="1"><g transform="matrix(1,0,0,1,40.449,9.449)" opacity="1" style="user-select: none; display: none;"><g opacity="1" transform="matrix(1,0,0,1,-35.449,-4.449)"><path fill="rgb(216,40,40)" fill-opacity="1" d=" M0,-2.9899645124921195 C1.6501614144444006,-2.9899645124921195 2.9899645124921195,-1.6501614144444006 2.9899645124921195,0 C2.9899645124921195,1.6501614144444006 1.6501614144444006,2.9899645124921195 0,2.9899645124921195 C-1.6501614144444006,2.9899645124921195 -2.9899645124921195,1.6501614144444006 -2.9899645124921195,0 C-2.9899645124921195,-1.6501614144444006 -1.6501614144444006,-2.9899645124921195 0,-2.9899645124921195z" style="display: none;"></path><path stroke-linecap="butt" stroke-linejoin="miter" fill-opacity="0" stroke-miterlimit="4" stroke="rgb(255,255,255)" stroke-opacity="1" stroke-width="0" d=" M0,-2.9899645124921195 C1.6501614144444006,-2.9899645124921195 2.9899645124921195,-1.6501614144444006 2.9899645124921195,0 C2.9899645124921195,1.6501614144444006 1.6501614144444006,2.9899645124921195 0,2.9899645124921195 C-1.6501614144444006,2.9899645124921195 -2.9899645124921195,1.6501614144444006 -2.9899645124921195,0 C-2.9899645124921195,-1.6501614144444006 -1.6501614144444006,-2.9899645124921195 0,-2.9899645124921195z" style="display: none;"></path></g></g></g><g clip-path="url(#cp_j581qT68)" transform="matrix(1,0,0,1,164,0)" opacity="1"><g transform="matrix(1,0,0,1,40.449,9.449)" opacity="1" style="user-select: none; display: none;"><g opacity="1" transform="matrix(1,0,0,1,-35.449,-4.449)"><path fill="rgb(216,40,40)" fill-opacity="1" d=" M0,-0.06208187888807424 C0.03426298895832817,-0.06208187888807424 0.06208187888807424,-0.03426298895832817 0.06208187888807424,0 C0.06208187888807424,0.03426298895832817 0.03426298895832817,0.06208187888807424 0,0.06208187888807424 C-0.03426298895832817,0.06208187888807424 -0.06208187888807424,0.03426298895832817 -0.06208187888807424,0 C-0.06208187888807424,-0.03426298895832817 -0.03426298895832817,-0.06208187888807424 0,-0.06208187888807424z" style="display: none;"></path><path stroke-linecap="butt" stroke-linejoin="miter" fill-opacity="0" stroke-miterlimit="4" stroke="rgb(255,255,255)" stroke-opacity="1" stroke-width="0" d=" M0,-0.06208187888807424 C0.03426298895832817,-0.06208187888807424 0.06208187888807424,-0.03426298895832817 0.06208187888807424,0 C0.06208187888807424,0.03426298895832817 0.03426298895832817,0.06208187888807424 0,0.06208187888807424 C-0.03426298895832817,0.06208187888807424 -0.06208187888807424,0.03426298895832817 -0.06208187888807424,0 C-0.06208187888807424,-0.03426298895832817 -0.03426298895832817,-0.06208187888807424 0,-0.06208187888807424z" style="display: none;"></path></g></g></g><g clip-path="url(#cp_OimSeH1B)"><g style="user-select: none; display: none;"><g><path style="display: none;"></path><path stroke-linecap="butt" stroke-linejoin="miter" fill-opacity="0" stroke-miterlimit="4" style="display: none;"></path></g></g></g><g clip-path="url(#cp_9TC6gyz1)"><g style="user-select: none; display: none;"><g><path style="display: none;"></path><path stroke-linecap="butt" stroke-linejoin="miter" fill-opacity="0" stroke-miterlimit="4" style="display: none;"></path></g></g></g><g clip-path="url(#cp_Qek6Kpsu)"><g style="user-select: none; display: none;"><g><path style="display: none;"></path><path stroke-linecap="butt" stroke-linejoin="miter" fill-opacity="0" stroke-miterlimit="4" style="display: none;"></path></g></g></g><g clip-path="url(#cp_Nfi3ZcU6)"><g style="user-select: none; display: none;"><g><path style="display: none;"></path><path stroke-linecap="butt" stroke-linejoin="miter" fill-opacity="0" stroke-miterlimit="4" style="display: none;"></path></g></g></g><g clip-path="url(#cp_OoE73ry5)"><g style="user-select: none; display: none;"><g><path style="display: none;"></path><path stroke-linecap="butt" stroke-linejoin="miter" fill-opacity="0" stroke-miterlimit="4" style="display: none;"></path></g></g></g><g clip-path="url(#cp_POh5coDH)"><g style="user-select: none; display: none;"><g><path style="display: none;"></path><path stroke-linecap="butt" stroke-linejoin="miter" fill-opacity="0" stroke-miterlimit="4" style="display: none;"></path></g></g></g><g clip-path="url(#cp_adCz7Zk2)"><g style="user-select: none; display: none;"><g><path style="display: none;"></path><path stroke-linecap="butt" stroke-linejoin="miter" fill-opacity="0" stroke-miterlimit="4" style="display: none;"></path></g></g></g><g clip-path="url(#cp_WOdhx5iX)"><g style="user-select: none; display: none;"><g><path style="display: none;"></path><path stroke-linecap="butt" stroke-linejoin="miter" fill-opacity="0" stroke-miterlimit="4" style="display: none;"></path></g></g></g></g><g clip-path="url(#cp_v0YwAr5T)" transform="matrix(1,0,0,1,0,-2.6670000000000016)" opacity="1"><g transform="matrix(1,0,0,1,169.5,194)" opacity="1" style="user-select: none; display: none;"><g opacity="1" transform="matrix(1,0,0,1,0,0.5)"><path stroke-linecap="butt" stroke-linejoin="miter" fill-opacity="0" stroke-miterlimit="4" stroke="rgb(249,186,5)" stroke-opacity="1" stroke-width="8" d="" style="display: none;"></path></g></g><g transform="matrix(1,0,0,1,169.5,166.5)" opacity="1" style="user-select: none; display: none;"><g opacity="1" transform="matrix(1,0,0,1,0,0.5)"><path stroke-linecap="butt" stroke-linejoin="miter" fill-opacity="0" stroke-miterlimit="4" stroke="rgb(66,132,244)" stroke-opacity="1" stroke-width="8" d="" style="display: none;"></path></g></g><g transform="matrix(1,0,0,1,169.5,140)" opacity="1" style="user-select: none; display: none;"><g opacity="1" transform="matrix(1,0,0,1,0,0.5)"><path stroke-linecap="butt" stroke-linejoin="miter" fill-opacity="0" stroke-miterlimit="4" stroke="rgb(234,66,53)" stroke-opacity="1" stroke-width="8" d="" style="display: none;"></path></g></g></g></g><g transform="matrix(0,0,0,0,238.8273,187.5)" opacity="1" style="user-select: none; display: none;"><g opacity="1" transform="matrix(1,0,0,1,163.987,140)"><path fill="rgb(56,181,73)" fill-opacity="1" d=" M84,0 C84,46.392 46.392,84 0,84 C-46.392,84 -84,46.392 -84,0 C-84,-46.392 -46.392,-84 0,-84 C46.392,-84 84,-46.392 84,0z" style="display: none;"></path></g></g><g></g><g mask="url(#ly_SiO6mGQ65L)"><g clip-path="url(#cp_8OoZpkFM)" filter="url(#ujH3A6NEzX)" transform="matrix(0.5900335314694718,0,0,0.5900335314694718,167.6967975938699,107.06231168287637)" opacity="1"><g transform="matrix(2,0,0,2,73,95)" opacity="1" style="user-select: none; display: block;"><g opacity="1" transform="matrix(1,0,0,1,25.362,21.124)"><path fill="rgb(255,255,255)" fill-opacity="1" d=" M17.48,-15.461 C17.48,-15.461 -6.74,7.502 -6.74,7.502 C-6.74,7.502 -17.062,-3.24 -17.062,-3.24 C-17.062,-3.24 -21.251,0.949 -21.251,0.949 C-21.251,0.949 -6.74,15.461 -6.74,15.461 C-6.74,15.461 21.251,-11.272 21.251,-11.272 C21.251,-11.272 17.48,-15.461 17.48,-15.461z" style="display: block;"></path></g></g></g></g></g></svg>
